inDegrees=no
num_controls=7
num_derivatives=13
num_iterations=95
num_multipliers=7
num_parameters=0
num_slacks=7
num_states=26
objective=5.265746
objective_accelerations=0.708465
objective_balance=0.033892
objective_effort=0.508785
objective_height=3.972729
objective_ligament=0.041874
solver_duration=1010.013742
status=Solve_Succeeded
success=true
DataType=double
version=3
OpenSimVersion=4.4-2022-07-23-0e9fedc
endheader
time	/jointset/ground_pelvis/pelvis_tilt/value	/jointset/ground_pelvis/pelvis_tx/value	/jointset/ground_pelvis/pelvis_ty/value	/jointset/hip_l/hip_flexion_l/value	/jointset/hip_l/hip_adduction_l/value	/jointset/hip_l/hip_rotation_l/value	/jointset/back/lumbar_extension/value	/jointset/patellofemoral_l/patellar_flexion_l/value	/jointset/knee_l/knee_flexion_l/value	/jointset/knee_l/knee_adduction_l/value	/jointset/knee_l/knee_rotation_l/value	/jointset/ankle_l/ankle_angle_l/value	/jointset/subtalar_l/subtalar_angle_l/value	/jointset/ground_pelvis/pelvis_tilt/speed	/jointset/ground_pelvis/pelvis_tx/speed	/jointset/ground_pelvis/pelvis_ty/speed	/jointset/hip_l/hip_flexion_l/speed	/jointset/hip_l/hip_adduction_l/speed	/jointset/hip_l/hip_rotation_l/speed	/jointset/back/lumbar_extension/speed	/jointset/patellofemoral_l/patellar_flexion_l/speed	/jointset/knee_l/knee_flexion_l/speed	/jointset/knee_l/knee_adduction_l/speed	/jointset/knee_l/knee_rotation_l/speed	/jointset/ankle_l/ankle_angle_l/speed	/jointset/subtalar_l/subtalar_angle_l/speed	/forceset/tau_hip_flexion_l	/forceset/tau_hip_adduction_l	/forceset/tau_hip_rotation_l	/forceset/tau_knee_flexion_l	/forceset/tau_ankle_angle_l	/forceset/tau_subtalar_angle_l	/forceset/tau_lumbar_extension	lambda_cid13_p0	lambda_cid13_p1	lambda_cid13_p2	lambda_cid13_p3	lambda_cid13_p4	lambda_cid13_p5	lambda_cid14_p0	/jointset/ground_pelvis/pelvis_tilt/accel	/jointset/ground_pelvis/pelvis_tx/accel	/jointset/ground_pelvis/pelvis_ty/accel	/jointset/hip_l/hip_flexion_l/accel	/jointset/hip_l/hip_adduction_l/accel	/jointset/hip_l/hip_rotation_l/accel	/jointset/back/lumbar_extension/accel	/jointset/patellofemoral_l/patellar_flexion_l/accel	/jointset/knee_l/knee_flexion_l/accel	/jointset/knee_l/knee_adduction_l/accel	/jointset/knee_l/knee_rotation_l/accel	/jointset/ankle_l/ankle_angle_l/accel	/jointset/subtalar_l/subtalar_angle_l/accel	gamma_cid13_p0	gamma_cid13_p1	gamma_cid13_p2	gamma_cid13_p3	gamma_cid13_p4	gamma_cid13_p5	gamma_cid14_p0
0	-0.1536332932696939	0.05613706383615833	0.8977836021188339	0.3774920279260975	-0.2621494044770417	-0.2202695078651435	-0.0126506700172305	0.03223623128431417	0.03223623128433527	-0.1745316082350476	0.1242467565292186	-0.04231376238535053	-0.01289231404348766	0	0	0	0	0	0	0	0	0	0	0	0	0	0.131829523878467	-0.05546836003444609	-0.03509114780308941	-0.255809597339379	0.2326578165560925	-0.03195095900128501	-0.0873762529892089	34.3767283625651	3.801644921829093	3.623897491921549	12.2867672738018	-570.3738296153293	-64.27161940866608	-37.60459843069413	-2.863283975417346	-2.746398925136658	-1.320871779928111	16.70678711547524	-0.369845540270505	4.150722505194204	-8.075610292959016	17.48123962764027	17.48123962763799	3.052742870636064	1.673255775540705	4.557915237373139	0.6219793454779952	2.983429401587108e-09	4.40410269386681e-07	-4.00056750565541e-08	3.087175075601732e-09	3.105489955338012e-07	7.323726546549892e-08	3.833055851416519e-08
0.01	-0.1537683169817542	0.05600155314467152	0.8977192268814957	0.3783063815065731	-0.2621677451161832	-0.2200619546846734	-0.01305508533927144	0.03309267517350989	0.03309267517351328	-0.1743820233390997	0.1243246944955396	-0.04209105748337478	-0.01286225281351981	-0.02680661114009568	-0.02695974617532135	-0.01283727409545321	0.1620002247396655	-0.003627790824695634	0.04127566882471374	-0.08030660520603791	0.1704520293567466	0.1704520293567417	0.0297833836070882	0.0155115549793962	0.04433655858097474	0.006004930477312194	0.1249600198303373	-0.06464584465999219	-0.03381343357356823	-0.248660258558418	0.2214086274464947	-0.01861825387647342	-0.08157341405676041	31.21251517809796	-1.210643109109173	4.167044561304082	13.3642469042642	-571.9164716042391	-73.97485145561211	-37.63080149000135	-2.559639997969001	-2.649403027971396	-1.259427108780721	15.81606184343458	-0.3532729093807548	4.080770736902274	-7.921716752997987	16.7016646516574	16.70166465165878	2.921169760378898	1.478735024929263	4.340867036728387	0.5885880002523931	-3.798382227593771e-08	4.706676936105547e-07	6.956307237385943e-08	6.368608738784877e-08	3.486877601344368e-08	2.283450870025071e-08	3.326234081940959e-08
0.02	-0.1541654648682039	0.05560071687858471	0.8975276245263132	0.3807146216725236	-0.2622211690747326	-0.2194486884828089	-0.01424527293709677	0.03562853536862122	0.03562853536863241	-0.1739385978759795	0.1245554739448935	-0.04143111882193434	-0.01277237465850066	-0.05242483486653114	-0.05306511491999955	-0.02544542356886824	0.318777317088314	-0.00701666388188064	0.08114260428110501	-0.1571544551549211	0.3358832611920872	0.3358832611920967	0.05876811339949863	0.03056829659038858	0.08744675189267755	0.01196338501038905	0.1180905157826427	-0.07382332928547682	-0.03253571934364281	-0.2415109197775706	0.210159438336829	-0.005285548751621839	-0.07577057512385998	28.19721704105654	-6.245794345900866	4.710171606577986	14.14865467588663	-571.2245463972862	-83.46039756262924	-37.70790486474714	-2.625606492685165	-2.575523439008021	-1.275046855520505	15.66216063727169	-0.322061986768806	3.868975831529686	-7.383859241527663	16.477080123359	16.47708012336056	2.893012107699695	1.582293101859977	4.312642183518622	0.6126841566304858	-7.895107395346253e-08	5.009251178344285e-07	1.79131819804273e-07	1.242849997000958e-07	-2.408114435069138e-07	-2.756824806499751e-08	2.819412312465399e-08
0.03	-0.1548138343737727	0.05494382764381765	0.8972104560483446	0.3846652537293364	-0.2623066603797714	-0.2184444192385925	-0.016185335241417	0.03979428377035599	0.0397942837703615	-0.1732085508548016	0.1249347853637595	-0.0403450646106862	-0.01262231941795324	-0.07707941323935637	-0.07809352465860932	-0.03799961907648665	0.4704264021177406	-0.01001285368266412	0.1194846473845049	-0.2302230104011062	0.496418771214285	0.4964187712142799	0.08711621021576701	0.04515729563563779	0.1296455801679382	0.01808290532380566	0.1126789648166085	-0.06922173935168251	-0.0320471685702431	-0.2392678911575762	0.2099997832473877	-0.007703015492018246	-0.07076630647552964	28.15410859718933	-5.268583999608177	4.646033775037489	12.75587041815868	-570.5931997896572	-80.56911817197722	-37.83257916839028	-2.359934965910882	-2.43359353295779	-1.247357232287426	14.77787323558239	-0.2781897060116707	3.782820031890462	-7.173104369243714	15.71463363201877	15.71463363201613	2.787053691063385	1.376701410990381	4.155731460767759	0.6167733380541789	-1.063782106586572e-07	4.297395558459285e-07	2.419463389768114e-07	1.641676925678545e-07	-4.48260881639194e-07	-7.327249723039415e-08	1.837772256387233e-08
0.04	-0.1557036599544041	0.05404323555333199	0.8967673953485141	0.3901046947964315	-0.262420072028667	-0.217063529266918	-0.01883703323882152	0.0455399567103794	0.04553995671038515	-0.1721987538209565	0.1254558863941254	-0.03884057645443694	-0.0124100315004011	-0.1007160498651713	-0.1018056860637202	-0.05062386794124901	0.6165391191394267	-0.01260073265458552	0.1564667497737062	-0.29948159377046	0.6518681688511999	0.6518681688511726	0.1147181159309315	0.05892621888619762	0.1711335408926975	0.02440992041148524	0.1072674138510915	-0.06462014941790035	-0.03155861779667489	-0.2370248625375699	0.2098401281579019	-0.01012048223243756	-0.06576203782669518	28.24332387928373	-4.306796880187228	4.575509528023954	11.09552459601994	-567.9868928616371	-77.46004442558184	-38.00050371884407	-2.422018143282863	-2.312273772308151	-1.289057526949307	14.55488703572352	-0.2403998209966581	3.596987688689949	-6.621864866160973	15.45985764630232	15.45985764630236	2.743773887478424	1.418277942922115	4.170468673418363	0.6541831114828364	-1.335261697355563e-07	3.564623858942868e-07	3.037968534430019e-07	2.03623246890366e-07	-6.543034995366686e-07	-1.18879869950433e-07	8.463421325440649e-09
0.05	-0.1568254809756348	0.05291174287557217	0.8961970972672495	0.3969795551110124	-0.2625572121917523	-0.2153210435082988	-0.02216204537578268	0.05281594852607344	0.05281594852604059	-0.170916750115693	0.1261118798720922	-0.0369249346299747	-0.01213339077082669	-0.1234652060363887	-0.1243042722108926	-0.06349373401410456	0.7575497646694583	-0.01475031593285321	0.191766758120423	-0.364951066205712	0.8024882096572213	0.8024882096572221	0.141540324945964	0.07213111177650125	0.211823647783136	0.03094698512364424	0.1007969592741379	-0.06317826480763124	-0.03075830640222025	-0.2334576538099167	0.2058070153088794	-0.008089399071279476	-0.06020134330164369	27.24903887873079	-5.005566476542662	4.676359610284591	10.49030753054651	-565.2413795866966	-77.55688938328817	-38.20634081414436	-2.173911290867029	-2.190323400353539	-1.294781528517823	13.74167293311985	-0.1907771219552439	3.456924509659081	-6.424023319213935	14.73677799070754	14.73677799071196	2.630194797428878	1.250361549675698	3.992606596225772	0.657692649880241	-1.405938729923601e-07	2.141348105983546e-07	3.137028436195363e-07	2.115133042082553e-07	-7.388255853361874e-07	-1.509651181685039e-07	-3.554509321201422e-09
0.06	-0.1581693029460005	0.05156092986345524	0.8954963344490399	0.4052380258051931	-0.2627135560957662	-0.2132334742458356	-0.02612465921451369	0.06157288088839372	0.06157288088839819	-0.1693707742426344	0.1268956755965614	-0.0346075267567347	-0.011790534494372	-0.1451162396805305	-0.1456697529351395	-0.07671681533029677	0.8932611950585932	-0.01644148083970741	0.2254834505469933	-0.4270019341212108	0.9480562781814487	0.9480562781814735	0.1675125495175298	0.08448666817044409	0.2514867506483317	0.037653029787711	0.09432650469761086	-0.06173638019719044	-0.02995799500726973	-0.2298904450821025	0.2017739024599647	-0.006058315909937215	-0.05464064877636177	26.36628355747048	-5.719305531126871	4.774391649006803	9.647891297719996	-560.8430590565681	-77.46996708752131	-38.44416626330829	-2.202393637867556	-2.085652687722869	-1.35970057561665	13.49504400754413	-0.1487161467141696	3.280324504660615	-5.938143962209947	14.44946318994339	14.44946318994265	2.573776998784659	1.248410643649952	3.965067868369905	0.6879791018641994	-1.468160917935808e-07	6.889984981424173e-08	3.214216959312431e-07	2.180742879680552e-07	-8.182310171526343e-07	-1.824810137759656e-07	-1.566101383766287e-08
